<?xml version="1.0" encoding="UTF-8"?>
<svg version="1.1" xmlns="http://www.w3.org/2000/svg" width="500" height="500">
<path d="M0 0 C1.53368703 -0.00461886 3.06736962 -0.01097834 4.60104311 -0.01890898 C8.78054136 -0.03549003 12.95967072 -0.02740762 17.13916969 -0.0149641 C21.66000904 -0.00586972 26.18078737 -0.01990489 30.70161438 -0.03088379 C39.54354972 -0.04862611 48.38534888 -0.04484844 57.22728945 -0.03323323 C64.41511159 -0.0241834 71.60289569 -0.02298159 78.79072189 -0.02732849 C80.32780444 -0.02824789 80.32780444 -0.02824789 81.89593916 -0.02918586 C83.97790319 -0.03046481 86.0598672 -0.03176167 88.1418312 -0.03307623 C107.64192922 -0.04446917 127.1419519 -0.03138792 146.64203756 -0.00987476 C163.3620939 0.0080004 180.08203916 0.00488616 196.80209351 -0.0135498 C216.23762476 -0.03497001 235.67309008 -0.04337628 255.10863149 -0.03110075 C257.18213549 -0.0298266 259.2556395 -0.02856912 261.32914352 -0.02732849 C262.34924576 -0.02671139 263.369348 -0.02609429 264.42036242 -0.02545848 C271.59784021 -0.02200944 278.77527605 -0.02782421 285.95274734 -0.0372467 C294.70197349 -0.0484806 303.45105613 -0.04539716 312.2002659 -0.02412373 C316.66143629 -0.01363287 321.12236768 -0.00945795 325.58353615 -0.02272034 C329.67196093 -0.03469058 333.75992646 -0.02800599 337.84830992 -0.00681013 C339.32253071 -0.00236366 340.79679077 -0.00456609 342.27098604 -0.01431328 C358.82977358 -0.11534967 371.32669251 5.14777208 383.17611694 16.63293457 C393.95632336 27.48632743 397.83207704 39.64758997 397.80111694 54.69543457 C397.72264822 69.99200686 393.79310634 81.44657949 384.42611694 93.50793457 C383.76611694 93.50793457 383.10611694 93.50793457 382.42611694 93.50793457 C382.05486694 94.46699707 382.05486694 94.46699707 381.67611694 95.44543457 C380.42611694 97.50793457 380.42611694 97.50793457 378.30111694 98.25793457 C377.68236694 98.34043457 377.06361694 98.42293457 376.42611694 98.50793457 C376.42611694 99.16793457 376.42611694 99.82793457 376.42611694 100.50793457 C374.26442084 101.64343224 372.09749805 102.76622429 369.92611694 103.88293457 C369.32541382 104.20004395 368.72471069 104.51715332 368.10580444 104.84387207 C367.49994507 105.15324707 366.89408569 105.46262207 366.26986694 105.78137207 C365.45292358 106.2055542 365.45292358 106.2055542 364.61947632 106.63830566 C356.34857396 109.91757483 348.32779649 109.79585994 339.54289246 109.77536011 C338.02319939 109.77909974 336.50350825 109.7837025 334.98382014 109.78909075 C330.81978999 109.80129767 326.65584032 109.80106301 322.49179637 109.798702 C317.99606461 109.79829325 313.50035845 109.80933861 309.00463867 109.81881714 C300.20082368 109.83541573 291.39703548 109.84092618 282.59320614 109.84204189 C275.43484665 109.84299296 268.27649597 109.8471062 261.11813927 109.85344315 C240.81170561 109.87105289 220.50529308 109.8802825 200.19885174 109.8787822 C199.104589 109.87870229 198.01032627 109.87862237 196.88290405 109.87854004 C195.23949985 109.8784174 195.23949985 109.8784174 193.56289556 109.87829228 C175.81183511 109.87747958 158.06085956 109.89661384 140.30982367 109.92481677 C122.07223145 109.9535635 103.8346806 109.96735606 85.59706515 109.96562922 C75.36246733 109.96496591 65.1279585 109.97043229 54.89338112 109.99198532 C46.17850669 110.01022071 37.46376158 110.01452513 28.74887631 110.00096647 C24.30571001 109.99444857 19.86279165 109.99427687 15.41964912 110.01167297 C11.34512235 110.0274612 7.2710389 110.02448191 3.19652256 110.00710471 C1.72951251 110.00404739 0.2624689 110.00761896 -1.20450153 110.01882486 C-18.17096575 110.13975272 -32.57917896 105.41175445 -45.01138306 93.57043457 C-52.31472338 85.63670066 -55.85237045 77.93342133 -58.57388306 67.50793457 C-58.86392212 66.55273926 -58.86392212 66.55273926 -59.15982056 65.57824707 C-61.9556065 51.59931735 -58.56892986 36.17486189 -51.39028931 24.06652832 C-38.70937579 6.20416626 -21.21883374 -0.14076156 0 0 Z " fill="#F5B06F" transform="translate(80.57388305664063,186.4920654296875)"/>
<path d="M0 0 C1.56539962 0.00489939 3.13080089 0.0092901 4.69620323 0.0132246 C8.10863804 0.02253885 11.52104616 0.03477495 14.93346405 0.0489769 C20.58496675 0.07164503 26.23646194 0.08250188 31.88800049 0.09170532 C57.03481266 0.1346572 82.18151348 0.21495545 107.32819557 0.30529499 C119.99841137 0.3504907 132.66859637 0.38993103 145.33886719 0.41601562 C156.49696675 0.43899621 167.65497813 0.47235149 178.81300771 0.51828164 C184.68922105 0.54212629 190.56534788 0.56091483 196.44160843 0.56719398 C201.9430593 0.57324341 207.44428469 0.593238 212.94565201 0.62385559 C214.95716283 0.63262326 216.9687031 0.63636104 218.98023224 0.63458824 C237.41463317 0.62347143 251.25177302 3.5004697 264.83837891 17.00708008 C272.94073271 25.39006831 276.36559259 32.82116608 279.40087891 44.06958008 C279.59681641 44.72571289 279.79275391 45.3818457 279.99462891 46.05786133 C283.04026075 61.13959593 278.18500331 76.28786608 270.40087891 89.06958008 C262.17278511 100.43366434 250.25367591 108.13877548 236.38217449 110.60663319 C231.5956148 111.26108602 226.82024378 111.21107554 221.99702454 111.20329285 C220.96228805 111.2055584 219.92755157 111.20782396 218.86145943 111.21015817 C215.40103641 111.21647827 211.94065276 111.21567007 208.48022461 111.21484375 C205.99623057 111.21783651 203.51223699 111.22123931 201.02824402 111.22502136 C194.98457388 111.23293714 188.94091916 111.23607555 182.89724527 111.23663374 C177.98141902 111.23710968 173.06559597 111.23916833 168.14977074 111.24233437 C154.19618189 111.25113753 140.24260072 111.25575436 126.28900907 111.25500389 C125.5374227 111.25496394 124.78583633 111.25492398 124.01147461 111.25488281 C123.25896469 111.25484193 122.50645478 111.25480105 121.73114153 111.25475893 C109.54381115 111.25435274 97.3565117 111.26391641 85.16919027 111.27802118 C72.63933101 111.2924073 60.10948683 111.29929011 47.57961911 111.2984274 C40.5515485 111.29809617 33.52351031 111.30081094 26.49544716 111.31160545 C19.88230978 111.32169795 13.26922896 111.32135228 6.65608406 111.31408882 C4.23421885 111.31304534 1.81234934 111.31539176 -0.60950851 111.32144928 C-3.92653471 111.3292058 -7.24332708 111.32450014 -10.56034851 111.31681824 C-11.50892044 111.3219618 -12.45749237 111.32710536 -13.43480891 111.33240479 C-23.32182776 111.28212783 -32.90432843 110.1792666 -41.72412109 105.50708008 C-42.40007324 105.15701904 -43.07602539 104.80695801 -43.77246094 104.44628906 C-56.17929616 97.75418016 -64.99857113 87.40675137 -69.59912109 74.06958008 C-73.72209033 59.38150219 -72.84542331 43.09174976 -65.97412109 29.44458008 C-58.40333363 16.45805604 -46.35811776 5.94867457 -31.72412109 1.81958008 C-21.29783204 -0.28988887 -10.58620787 -0.05961357 0 0 Z " fill="#FAB26B" transform="translate(145.59912109375,30.930419921875)"/>
<path d="M0 0 C1.00377691 -0.00226556 2.00755383 -0.00453111 3.04174823 -0.00686532 C6.38540325 -0.01316555 9.72901733 -0.01237853 13.07267761 -0.0115509 C15.47814994 -0.01454486 17.88362179 -0.01794793 20.28909302 -0.02172852 C26.13329549 -0.02963315 31.97748567 -0.0327821 37.82169322 -0.03334089 C42.57538164 -0.03381732 47.32906676 -0.03587836 52.08275414 -0.03904152 C65.58182651 -0.04784021 79.08089096 -0.05246207 92.57996622 -0.05171105 C93.30652583 -0.05167109 94.03308543 -0.05163113 94.78166199 -0.05158997 C95.50911598 -0.05154909 96.23656998 -0.0515082 96.98606803 -0.05146609 C108.77234707 -0.05105973 120.55859414 -0.06062865 132.34486393 -0.07472833 C144.46798211 -0.08911574 156.59108472 -0.09599723 168.71421164 -0.09513456 C175.51198057 -0.09480343 182.30971598 -0.09751363 189.10747719 -0.10831261 C195.50232106 -0.11801481 201.89709428 -0.11805817 208.29194069 -0.11079597 C210.63317976 -0.10975281 212.97442329 -0.11209703 215.31565475 -0.11815643 C238.42343425 -0.17406893 256.49758373 1.42747481 273.97184753 18.07121277 C282.17498534 26.6937339 287.82864925 37.08858758 288.65934753 49.13371277 C288.75409363 50.49689636 288.75409363 50.49689636 288.85075378 51.88761902 C289.43349861 67.20816836 285.106361 81.99290882 275.15934753 93.75871277 C264.91059889 104.49332802 251.73267232 111.13980521 236.76750183 111.58781433 C234.3394312 111.58719278 231.91129137 111.56530427 229.48356628 111.52433777 C228.19239395 111.51867798 226.90122162 111.51301819 225.57092285 111.50718689 C222.18579962 111.49212327 218.80139466 111.4530169 215.41654968 111.40837097 C211.94354461 111.36699397 208.47042018 111.34908665 204.99723816 111.32902527 C198.21765157 111.28649658 191.4385343 111.21848925 184.65934753 111.13371277 C184.13260437 110.05702332 183.60586121 108.98033386 183.06315613 107.87101746 C182.35325107 106.43243298 181.64311501 104.99396248 180.93278503 103.55558777 C180.41542786 102.49573669 180.41542786 102.49573669 179.88761902 101.41447449 C177.10984749 95.80731198 173.91807223 90.71388585 170.32341003 85.58683777 C168.89527163 83.48150698 167.72523156 81.43774491 166.65934753 79.13371277 C165.99934753 79.13371277 165.33934753 79.13371277 164.65934753 79.13371277 C163.547165 77.98677453 162.43508481 76.83973692 161.32341003 75.69230652 C148.04581819 63.25625218 131.1549729 58.53720029 113.34684753 58.69621277 C111.57289612 58.70648499 111.57289612 58.70648499 109.7631073 58.71696472 C100.83328765 58.88061781 93.02992938 59.82896357 84.65934753 63.13371277 C83.76989441 63.48433777 82.88044128 63.83496277 81.96403503 64.19621277 C63.18601319 72.67281197 50.34176285 88.34406132 42.63200378 107.02433777 C41.65934753 109.13371277 41.65934753 109.13371277 39.65934753 111.13371277 C37.37361145 111.39440918 37.37361145 111.39440918 34.48210144 111.40837097 C33.39982269 111.41790298 32.31754395 111.427435 31.20246887 111.43725586 C30.02550446 111.43634445 28.84854004 111.43543304 27.63591003 111.43449402 C26.4242215 111.43877914 25.21253296 111.44306427 23.96412659 111.44747925 C21.39004644 111.45323516 18.81595001 111.45371359 16.24186707 111.4493866 C12.33516357 111.44625352 8.42923706 111.46957699 4.52262878 111.49504089 C2.01872348 111.49731668 -0.48518384 111.49801609 -2.98908997 111.49699402 C-4.14581207 111.50620377 -5.30253418 111.51541351 -6.49430847 111.52490234 C-22.51197287 111.43532554 -36.64639898 106.48736583 -48.34846497 95.27824402 C-59.63341115 83.13033136 -63.82090663 68.58438068 -63.55158997 52.27043152 C-62.94498737 35.92586158 -54.8862039 23.06220238 -43.34065247 12.13371277 C-31.3667745 1.65924707 -15.25651454 -0.02560357 0 0 Z " fill="#F7AD68" transform="translate(137.3406524658203,339.8662872314453)"/>
<path d="M0 0 C-0.51046875 0.29390625 -1.0209375 0.5878125 -1.546875 0.890625 C-11.72764199 7.17237484 -21.17491814 15.8910906 -26 27 C-27 24 -27 24 -26.1015625 22.08984375 C-8.9098966 -2.96996553 -8.9098966 -2.96996553 0 0 Z " fill="#FEECD6" transform="translate(106,347)"/>
<path d="M0 0 C0.66 0.33 1.32 0.66 2 1 C-0.11905463 3.17277714 -2.24472878 5.33826908 -4.375 7.5 C-4.97828125 8.12003906 -5.5815625 8.74007812 -6.203125 9.37890625 C-6.78320312 9.96542969 -7.36328125 10.55195312 -7.9609375 11.15625 C-8.49509277 11.70087891 -9.02924805 12.24550781 -9.57958984 12.80664062 C-11 14 -11 14 -13 14 C-10.38256198 8.10428565 -5.28256657 3.59214527 0 0 Z " fill="#FCE0C0" transform="translate(98,40)"/>
</svg>
